<svg xmlns="http://www.w3.org/2000/svg" width="21" height="26" viewBox="0 0 21 26"><path fill="#f4f4f4" d="M16.77 13.81c-.03-3.12 2.55-4.62 2.66-4.69a5.76 5.76 0 0 0-4.5-2.44C13 6.48 11.18 7.8 10.2 7.8c-.97 0-2.47-1.1-4.07-1.07a6.03 6.03 0 0 0-5.1 3.09C-1.14 13.6.48 19.19 2.6 22.25c1.03 1.5 2.27 3.18 3.89 3.12 1.56-.06 2.15-1.01 4.04-1.01 1.89 0 2.42 1 4.07.98 1.68-.03 2.74-1.53 3.77-3.03 1.2-1.74 1.68-3.42 1.71-3.5-.04-.02-3.28-1.27-3.3-5zM10.01 6.4a5.17 5.17 0 0 1 1.3-3.82A5.52 5.52 0 0 1 14.96.71a5.43 5.43 0 0 1-1.28 3.94A4.57 4.57 0 0 1 10 6.4z"/></svg>