<svg xmlns="http://www.w3.org/2000/svg" width="47" height="47" viewBox="0 0 47 47"><path fill="#fff" d="M23.5 0c7.25 0 13.74 3.29 18.05 8.45.62-.34 1-.61.47-.22a.7.7 0 0 0-.29.44A23.5 23.5 0 1 1 23.5 0zM5.88 23.5a17.62 17.62 0 1 0 35.2-1.46c-1.21.39-3.02.51-3.17 1.1-.42 1.67-3.21 1.92-3.21 1.92s-3.4 2.66-4.13 2.11c-.74-.55.82-4.86 1.56-5.14.73-.27 0-2.2 0-2.75 0-.26-2.82-4.55-2.76-4.5-.48-.39-.27-4.04.92-4.13 1.2-.1 5.14.64 4.41 1.93-.27.46.33.4 1.17.15.12-.17.27-.35.44-.6.12-.19.18-.36.2-.52A17.62 17.62 0 0 0 5.88 23.5zm13.4-10.47c-.94 1.13-.83 1.59-.68 1.74a2.58 2.58 0 0 0-.42-.08c-1.47-.19-1.38 4.22-.74 4.95.64.74.92 1.93 1.84 1.1 1.37 0-.37.19 2.11.46 2.48.28 2.66-.64 2.57 1.29-.09 1.93-1.47 2.2-1.75 3.3-.27 1.1-1.37 2.67-1.19 3.58.19.92.09 1.29.46 2.2.37.93.37 4.05-.27 4.05-.65 0-1.29-2.57-1.29-2.57l-2.02-2.02-1.65 2.3-1.84-.38-1.28-.91S9.18 31.85 9 30.57c-.19-1.29-2.48-2.76-2.48-4.32 0-1.56-1.01-4.13-.19-4.68.83-.55.83.37 1.66-.09.82-.46.55-1.2 2.02-1.2 1.46 0 2.93-.82 3.39-1.55.46-.74 2.21-6.15 3.86-6.15s3.78-1.67 2.02.45zm-.68 1.74c.2.06.1.1 0 0zm13.71 18c.46.83 3.49 1.29 2.21 1.1-1.29-.18-1.01 2.48-2.67 2.2-1.65-.27-2.48.83-4.13.83-1.4 0-3.39-1.56-3.94-2.2-.56-.64 1.28-.1 2.01-1.1.74-1.01 1.01-.83 1.93-1.01.92-.19.83-1.01 1.56-1.1.74-.1 2.57.46 3.03 1.28zM15.04 8.48c4.04-2.75 6.68-2.33 8.34-2.03 1.01.19 3.09.4 3.09.4l-2.49 3.85-1.68-.46s-4.37 2.94-5.67.73c-1.3-2.2-2.93.35-5.46 2.5-2.53 2.14-.17-2.23 3.87-4.99z"/></svg>