<svg xmlns="http://www.w3.org/2000/svg" width="44" height="44" viewBox="0 0 44 44"><path fill="#fff" d="M43 25.24v-5.5l-4.6-.37c-.16-.9-.4-1.78-.7-2.63l3.8-2.62-2.75-4.76-4.17 1.98c-.59-.7-1.23-1.34-1.93-1.93l1.98-4.16-4.76-2.75-2.61 3.79c-.85-.3-1.73-.54-2.64-.7l-.37-4.6h-5.5l-.37 4.6c-.9.16-1.78.4-2.63.7l-2.62-3.8-4.76 2.76 1.98 4.16c-.7.6-1.34 1.24-1.93 1.93L4.26 9.36 1.5 14.12l3.79 2.62c-.3.85-.54 1.73-.7 2.63l-4.6.37v5.5l4.6.37c.16.9.4 1.78.7 2.64l-3.8 2.6 2.76 4.77 4.16-1.98c.6.7 1.24 1.34 1.93 1.93l-1.98 4.17 4.76 2.75 2.62-3.8c.85.3 1.73.54 2.63.7l.37 4.6h5.5l.37-4.6c.9-.16 1.79-.4 2.64-.7l2.61 3.8 4.76-2.75-1.98-4.17c.7-.6 1.34-1.23 1.93-1.93l4.17 1.98 2.75-4.76-3.8-2.61c.3-.86.54-1.74.7-2.64zM21.5 26.8a4.3 4.3 0 1 1 0-8.6 4.3 4.3 0 0 1 0 8.6z"/></svg>