<svg xmlns="http://www.w3.org/2000/svg" width="23" height="25" viewBox="0 0 23 25"><path fill="#f4f4f4" d="M20.63 7.96c-.84 0-1.54.7-1.54 1.54v6.16c0 .85.7 1.55 1.54 1.55.85 0 1.55-.7 1.55-1.55V9.5c0-.85-.7-1.54-1.55-1.54zm-18.49 0C1.3 7.96.6 8.66.6 9.5v6.16c0 .85.7 1.55 1.54 1.55.85 0 1.54-.7 1.54-1.55V9.5c0-.85-.69-1.54-1.54-1.54zm2.31 10.02a2.31 2.31 0 0 0 2.31 2.3h.77v3.09a1.55 1.55 0 0 0 3.08 0v-3.08h1.55v3.08c0 .85.7 1.54 1.54 1.54.85 0 1.54-.7 1.54-1.54v-3.08h.77a2.31 2.31 0 0 0 2.31-2.31V9.5H4.45zm9.8-15.57l.97-1.87a.2.2 0 0 0-.08-.26.2.2 0 0 0-.26.08l-1 1.9a6.91 6.91 0 0 0-5 0L7.9.36a.2.2 0 0 0-.34.18l.97 1.87A6.94 6.94 0 0 0 4.5 7.96h13.78a6.94 6.94 0 0 0-4.04-5.55zM8.3 6.76a1.12 1.12 0 1 1 0-2.23 1.12 1.12 0 0 1 0 2.23zm6.16 0a1.12 1.12 0 1 1 0-2.23 1.12 1.12 0 0 1 0 2.23z"/></svg>