<svg xmlns="http://www.w3.org/2000/svg" width="20" height="22" viewBox="0 0 20 22"><path fill="#fff" d="M8.11.13L6.65 5.02V8.36H5.41V5.03a20 20 0 0 0-.74-2.6C4.42 1.66 4.15.9 3.9.13h.04L3.9 0h1.28l.87 3.23L6.88 0h1.23l-.04.13zm2.92 7.69c-.3.41-.73.62-1.28.62a1.5 1.5 0 0 1-1.28-.62c-.24-.31-.35-.79-.35-1.45V4.23v-.15c0-.65.12-1.12.35-1.43.3-.42.73-.63 1.28-.63s.98.21 1.28.63c.23.31.34.79.34 1.44v2.38c-.01.6-.12 1.06-.34 1.35zm4.4.54h-1.1v-.67c-.43.51-.85.75-1.25.75-.35 0-.6-.14-.7-.45-.07-.19-.1-.48-.1-.91V2.1h1.1V7.04c.03.17.12.26.27.26.22 0 .45-.17.69-.52V2.1h1.1v6.12zM10.28 4c0-.56-.17-.85-.52-.85-.33 0-.5.25-.53.73v2.57c0 .57.17.85.53.85.33 0 .5-.24.52-.72zM19 15.66c0 1.42 0 2.92-.31 4.3-.22.97-1 1.68-1.95 1.79-2.23.25-4.5.25-6.74.25-2.25 0-4.51 0-6.75-.25a2.29 2.29 0 0 1-1.94-1.79c-.32-1.38-.32-2.88-.32-4.3s0-2.92.32-4.3c.22-.96 1-1.68 1.95-1.78 2.23-.25 4.5-.26 6.74-.25 2.25-.01 4.51 0 6.75.25.94.1 1.72.82 1.94 1.78.32 1.38.31 2.88.31 4.3zm-12.87-4.2h-3.8v1.14h1.29v7h1.2v-7h1.31zm3.3 2.07h-1.1v4.64c-.24.34-.47.51-.69.51-.14 0-.22-.08-.25-.26L7.38 18v-4.47H6.29v4.8c0 .43.04.72.1.9.1.31.35.45.7.45.4 0 .8-.24 1.24-.74v.66h1.1zm4.12 1.83c0-.57-.03-.97-.1-1.22-.15-.45-.44-.68-.88-.68-.4 0-.77.22-1.12.66v-2.66h-1.09v8.14h1.1v-.59c.35.45.73.67 1.11.67.44 0 .73-.23.87-.68.08-.26.11-.66.11-1.22zm4.11.15c0-.65-.1-1.12-.33-1.43a1.5 1.5 0 0 0-1.29-.62c-.55 0-.99.2-1.3.62-.23.31-.34.78-.34 1.43v2.12c0 .65.12 1.13.35 1.43.32.41.75.62 1.32.62a1.5 1.5 0 0 0 1.32-.66c.13-.19.21-.41.25-.65l.02-.71v-.16h-1.1c0 .44-.02.68-.03.74-.06.3-.22.44-.49.44-.37 0-.55-.28-.55-.84v-1.07h2.17zm-5.2-.23v2.58c0 .55-.15.82-.47.82-.18 0-.36-.08-.54-.27v-3.7c.18-.18.36-.26.54-.26.32 0 .48.28.48.83zm4.11.01v.56H15.5v-.56c0-.56.18-.84.54-.84.36 0 .54.28.54.84z"/></svg>